<svg xmlns="http://www.w3.org/2000/svg" version="1.1" xmlns:xlink="http://www.w3.org/1999/xlink" xmlns:svgjs="http://svgjs.dev/svgjs" width="1500" height="935" viewBox="0 0 1500 935"><g transform="matrix(1,0,0,1,-0.9090909090909918,0.3785425101214628)"><svg viewBox="0 0 396 247" data-background-color="#0c1d36" preserveAspectRatio="xMidYMid meet" height="935" width="1500" xmlns="http://www.w3.org/2000/svg" xmlns:xlink="http://www.w3.org/1999/xlink"><g id="tight-bounds" transform="matrix(1,0,0,1,0.2400000000000091,-0.09999999999999432)"><svg viewBox="0 0 395.52 247.2" height="247.2" width="395.52"><g><svg viewBox="0 0 395.52 247.2" height="247.2" width="395.52"><g transform="matrix(1,0,0,1,2.842170943040401e-14,20.623705408515548)"><svg viewBox="0 0 395.5199999999999 205.9525891829689" height="205.9525891829689" width="395.5199999999999"><g><svg viewBox="0 0 395.5199999999999 205.9525891829689" height="205.9525891829689" width="395.5199999999999"><g><svg viewBox="0 0 395.5199999999999 205.9525891829689" height="205.9525891829689" width="395.5199999999999"><g><svg viewBox="0 0 395.5199999999999 205.9525891829689" height="205.9525891829689" width="395.5199999999999"><g id="textblocktransform"><svg viewBox="0 0 395.5199999999999 205.9525891829689" height="205.9525891829689" width="395.5199999999999" id="textblock"><g><svg viewBox="0 0 395.5199999999999 205.9525891829689" height="205.9525891829689" width="395.5199999999999"><g transform="matrix(1,0,0,1,0,0)"><svg width="395.5199999999999" viewBox="-2.95 -40.35 87.89 46.25" height="205.9525891829689" data-palette-color="#f9cc0b"><path d="M1.05-35.35Q4.65-35.85 6.78-36.1 8.9-36.35 11.15-36.35L11.15-36.35Q15.2-36.35 18.13-35.4 21.05-34.45 23.05-32.15L23.05-32.15Q26.65-27.7 26.65-23.9L26.65-23.9Q26.65-21.75 25.7-19.53 24.75-17.3 22.95-15.7 21.15-14.1 18.7-13.85L18.7-13.85Q19.6-12.25 21.85-8.95L21.85-8.95Q23.85-6.05 25.1-3.9 26.35-1.75 27.25 0.7L27.25 0.7 27.55 1.35 26.85 1.35Q26.05 1.35 24.15 1.45L24.15 1.45Q21.95 1.55 20.8 1.55L20.8 1.55Q19.75 1.55 18.15 1.45L18.15 1.45Q18.05 1.3 17.95 1.03 17.85 0.75 17.68 0.6 17.5 0.45 17.15 0.45L17.15 0.45Q14.55-5.7 11.8-9.95L11.8-9.95 11.8-8.65Q11.8-7.25 12.05-2.75L12.05-2.75Q12.2-0.65 12.2 0.75L12.2 0.75Q11.15 1.25 9.88 1.4 8.6 1.55 6.85 1.55L6.85 1.55 4.65 1.5 1.75 1.5Q1.7 0.5 1.7-0.65L1.7-0.65 1.65-5.2 1.65-9.25Q1.65-17.05 1.48-25.25 1.3-33.45 1.05-35.35L1.05-35.35ZM16.9-15.25L17.15-15.3Q19.7-15.5 21.5-16.98 23.3-18.45 24.2-20.6 25.1-22.75 25.1-24.9L25.1-24.9Q25.1-27.55 23.78-30 22.45-32.45 20.08-34 17.7-35.55 14.8-35.65L14.8-35.65Q13.15-35.85 11.1-35.85L11.1-35.85Q8.85-35.85 6.88-35.63 4.9-35.4 1.65-34.95L1.65-34.95Q1.9-33.5 2.05-26.05 2.2-18.6 2.2-10.15L2.2-10.15 2.2-5Q2.2-2.6 2.15-1.65L2.15-1.65 2.15-0.1Q2.3-0.05 2.5-0.05L2.5-0.05Q3.15-0.05 3.55 0L3.55 0 5.55 0.05Q7.4 0.05 8.65-0.08 9.9-0.2 10.7-0.55L10.7-0.55Q10.3-5.5 10.3-9.6L10.3-9.6Q10.3-11.5 10.45-12.75L10.45-12.75 10.55-12.6Q12.45-10.3 14.3-6.78 16.15-3.25 17.5-0.05L17.5-0.05 17.55-0.05Q19.25 0.05 20.15 0.05L20.15 0.05Q21.25 0.05 23.25-0.05L23.25-0.05Q25.05-0.15 25.8-0.15L25.8-0.15Q24.9-2.55 23.55-4.83 22.2-7.1 20.25-9.95L20.25-9.95Q19.75-10.75 18.68-12.38 17.6-14 16.9-15.25L16.9-15.25ZM12.5-28.75Q14.2-28.75 15.3-27.73 16.4-26.7 16.4-24.95L16.4-24.95Q16.4-23.15 15.38-22.4 14.35-21.65 12.05-21.65L12.05-21.65Q10.5-21.65 9.25-21.8L9.25-21.8 9.2-21.8Q9.05-22.65 9.05-25.3L9.05-25.3 8.95-27.95Q10.75-28.75 12.5-28.75L12.5-28.75ZM13.5-27.25Q12.1-27.25 10.45-26.6L10.45-26.6Q10.55-25.3 10.55-24.3L10.55-24.3 10.5-22.85 10.55-22.15 12.05-22.15Q13.2-22.15 14.25-22.3L14.25-22.3 14.2-22.3Q15.05-22.5 15.5-23.23 15.95-23.95 15.95-24.95L15.95-24.95Q15.95-27.25 13.5-27.25L13.5-27.25ZM49.35 1.4Q47.35 1.75 46.15 1.75L46.15 1.75Q43.85 1.75 41.65 1.25L41.65 1.25Q41.45 0.65 41.3 0.5 41.15 0.35 40.95 0.33 40.75 0.3 40.65 0.25L40.65 0.25Q40.25-1 39.55-3.8L39.55-3.8Q39.15-5.45 38.87-6.2 38.6-6.95 38.3-6.95L38.3-6.95Q37.9-6.95 37.62-6.93 37.35-6.9 36.9-6.9L36.9-6.9Q36.55-5.95 36.2-3.85L36.2-3.85Q35.8-1.9 35.5-0.75 35.2 0.4 34.65 1.45L34.65 1.45Q34.5 1.45 34.22 1.5 33.95 1.55 33.55 1.55L33.55 1.55Q33 1.5 31.25 1.5L31.25 1.5 29.1 1.45 26.45 1.4 26.6 0.4 25.45 0.4 26.15-3.3Q27.55-11.4 29.2-19.28 30.85-27.15 33.35-35.45L33.35-35.45Q34.25-35.55 34.4-35.55L34.4-35.55Q34.6-35.55 35.7-35.5 36.8-35.45 40.3-35.8L40.3-35.8Q40.5-34.95 40.55-34.7L40.55-34.7 41.3-34.8Q41.75-32.25 44.45-21L44.45-21Q45.45-16.9 45.5-16.65L45.5-16.65 49.35 1.4ZM44-17.55L39.9-35.25Q37.7-35.05 35.55-35.05L35.55-35.05 34.5-35.05Q33.9-35.05 33.75-35L33.75-35Q31.35-26.95 29.77-19.35 28.2-11.75 26.65-3.15L26.65-3.15Q26.5-2.2 26.35-1.38 26.2-0.55 26.1-0.1L26.1-0.1 26.2-0.05 27.4-0.05 31.35 0Q31.85 0.05 32.55 0.05L32.55 0.05Q33.1 0.05 33.2 0L33.2 0 33.35-0.05Q33.8-0.8 34.05-1.85 34.3-2.9 34.6-4.65L34.6-4.65Q35.1-7.45 35.55-8.4L35.55-8.4Q36.1-8.4 36.45-8.43 36.8-8.45 37-8.45L37-8.45 37.65-8.45 38.65-8.35Q39.05-7.45 39.47-5.85 39.9-4.25 40-3.85L40-3.85Q40.5-1.5 41-0.2L41-0.2 41.05-0.2Q43 0.25 45.15 0.25L45.15 0.25Q46.4 0.25 47.75 0L47.75 0 47.75-0.05 44-17.55ZM36.4-14.25L35.2-14.3Q35.8-18.75 35.75-18.35L35.75-18.35Q36.15-21.7 36.42-23.23 36.7-24.75 37-24.75L37-24.75Q37.35-24.75 37.77-22.4 38.2-20.05 38.9-14.3L38.9-14.3 36.4-14.25ZM38.3-14.8L37.65-20.5 36.85-14.8 38.3-14.8ZM70.09-33.1Q68.55-24.95 66.59-17.05 64.65-9.15 61.7 1.45L61.7 1.45Q61.35 1.45 60.35 1.55L60.35 1.55Q59.15 1.65 58.15 1.65L58.15 1.65Q56.65 1.65 55.57 1.55 54.5 1.45 53.55 1.1L53.55 1.1Q53.5 0.95 53.42 0.73 53.35 0.5 53.15 0.38 52.95 0.25 52.55 0.1L52.55 0.1Q48.1-15.85 46.65-34.25L46.65-34.25Q47.1-34.8 48.42-35.05 49.75-35.3 51.35-35.3L51.35-35.3Q53.7-35.3 54.7-35.05L54.7-35.05Q54.8-34.35 54.97-34.2 55.15-34.05 55.7-34.05L55.7-34.05Q55.85-33.2 55.95-31.48 56.05-29.75 56.05-29.35L56.05-29.35Q56.15-25.55 56.4-22.3 56.65-19.05 57.3-15.35L57.3-15.35Q57.85-17.75 58.25-20.15 58.65-22.55 58.75-23.25L58.75-23.25 59.2-26.05 59.2-26Q59.4-27.1 59.45-27.65L59.45-27.65Q59.5-28.05 59.77-29.73 60.05-31.4 60.37-32.75 60.7-34.1 61.05-35.25L61.05-35.25Q62.85-34.9 65.65-34.9L65.65-34.9Q67.7-34.9 68.7-34.7L68.7-34.7 69.09-34.1Q69.05-34.05 69.05-33.8L69.05-33.8 69.7-33.7 70.09-33.1ZM61.4-34.65Q61.3-34.65 61.3-34.55L61.3-34.55Q60.6-31.8 59.7-25.95L59.7-25.95Q59-21.45 58.4-18.25 57.8-15.05 56.9-11.15L56.9-11.15Q55.7-16.1 55.25-20.65 54.8-25.2 54.55-30.5L54.55-30.5Q54.35-34.05 54.25-34.6L54.25-34.6Q53.65-34.8 51.35-34.8L51.35-34.8Q47.7-34.8 47.15-34.1L47.15-34.1 47.15-34.05Q48.6-16.1 53-0.25L53-0.25Q54.2 0.15 57.15 0.15L57.15 0.15Q58 0.15 58.95 0.05 59.9-0.05 60.3-0.05L60.3-0.05Q63.25-10.7 65.15-18.43 67.05-26.15 68.59-34.2L68.59-34.2Q67.59-34.4 65.4-34.4L65.4-34.4Q65.15-34.4 63.82-34.4 62.5-34.4 61.4-34.65L61.4-34.65ZM79.94-35.65L79.94-34.65 80.94-34.65 80.94-33.95Q80.94-30 80.89-27 80.84-24 80.79-22L80.79-22Q80.59-13.9 80.59-9.7L80.59-9.7Q80.59-4.25 80.89 0.95L80.89 0.95Q80.09 1.75 77.24 1.75L77.24 1.75 74.99 1.7Q74.24 1.65 72.89 1.65L72.89 1.65Q71.79 1.65 70.74 1.9L70.74 1.9 70.79 0.7Q69.94 0.8 69.74 0.9L69.74 0.9Q70.09-4.25 70.09-8.5L70.09-8.5Q70.09-11.35 70.04-13.53 69.99-15.7 69.94-17.1L69.94-17.1Q69.74-22.8 69.74-25.75L69.74-25.75Q69.74-30.65 70.24-35.8L70.24-35.8Q70.94-35.9 71.14-35.9L71.14-35.9Q72.54-35.9 74.04-35.8L74.04-35.8Q75.19-35.65 77.04-35.65L77.04-35.65 79.94-35.65ZM77.09-35.15Q75.89-35.15 73.19-35.3L73.19-35.3Q71.69-35.4 70.89-35.4L70.89-35.4 70.69-35.4 70.69-35.3Q70.24-31.25 70.24-25.8L70.24-25.8Q70.24-22.9 70.29-20.75 70.34-18.6 70.39-17.15L70.39-17.15Q70.59-11.25 70.59-8.2L70.59-8.2Q70.59-4 70.29 0.2L70.29 0.2Q70.99 0.1 71.44 0.1L71.44 0.1Q72.04 0.1 73.64 0.2L73.64 0.2Q75.44 0.3 76.44 0.3L76.44 0.3Q78.84 0.3 79.39-0.25L79.39-0.25Q79.09-5.65 79.09-11.15L79.09-11.15Q79.09-15.25 79.29-23.15L79.29-23.15Q79.34-25.15 79.39-28.1 79.44-31.05 79.44-34.95L79.44-34.95 79.44-35.15 77.09-35.15Z" opacity="1" transform="matrix(1,0,0,1,0,0)" fill="#f9cc0b" class="wordmark-text-0" data-fill-palette-color="primary" id="text-0"></path></svg></g></svg></g></svg></g></svg></g></svg></g></svg></g></svg></g></svg></g><defs></defs></svg><rect width="395.52" height="247.2" fill="none" stroke="none" visibility="hidden"></rect></g></svg></g></svg>